<?xml version="1.0" encoding="utf-8"?>
<!-- Generator: Adobe Illustrator 16.0.3, SVG Export Plug-In . SVG Version: 6.00 Build 0)  -->
<!DOCTYPE svg PUBLIC "-//W3C//DTD SVG 1.1//EN" "http://www.w3.org/Graphics/SVG/1.1/DTD/svg11.dtd">
<svg version="1.1" id="Layer_1" xmlns="http://www.w3.org/2000/svg" xmlns:xlink="http://www.w3.org/1999/xlink" x="0px" y="0px"
	 width="2000px" height="2000px" viewBox="0 0 2000 2000" enable-background="new 0 0 2000 2000" xml:space="preserve">
<g>
	<path fill="#010101" d="M1029.977,1103.172l-0.711-0.158c-0.985-0.176-1.996-0.283-3.031-0.283c-0.557,0-1.108,0.031-1.652,0.082
		c-2.02-0.049-4.527-0.084-7.506-0.084l-741.162,0.387c-9.256-0.127-15.42-0.83-18.506-1.088c-1.034-0.516,1.86-3.984,8.673-9.893
		c6.812-5.91,16.063-14.264,27.766-24.805c11.695-10.545,25.131-23.395,40.294-38.432c15.172-15.043,30.468-31.845,45.891-50.357
		c3.082-3.595,3.986-8.561,2.7-14.866c-1.291-6.3-3.795-13.115-7.519-20.435c-3.732-7.331-8.293-14.919-13.687-22.761
		c-5.402-7.84-10.608-15.17-15.619-21.983c-5.018-6.814-9.324-12.787-12.921-17.928c-3.601-5.146-5.531-8.736-5.786-10.802
		c-0.259-1.027-0.128-2.32,0.387-4.117c0.381-1.319,1.315-2.906,2.317-3.358l0.966-0.53c5.652-2.209,11.626-1.699,19.857-2.092
		c8.223-0.376,17.474-0.616,27.761-0.616c7.969,0,14.654-0.125,20.054-0.39c3.353-0.154,6.261-0.438,8.816-0.9
		c14.158-2.579,15.822-9.729,15.908-13.086c0.023-0.809-0.044-0.519-0.044-0.519c-0.415-12.297-13.114-10.869-13.114-10.869
		l-112.841-0.273c0,0-19.068-1.322-17.108,13.324l1.54,9.478c0.771,3.343,3.66,7.494,5.145,9.425
		c16.448,19.28,27.057,32.561,35.923,45.283c8.871,12.723,15.295,23.104,19.281,31.201c3.983,8.089,5.856,14.312,7.137,18.3
		c1.19,3.702,2.011,6.851,1.927,8.862c-2.571,6.17-7.909,13.31-16.007,21.406c-8.098,8.094-17.418,16.666-27.959,25.658
		c-10.542,9.004-21.59,18.291-33.158,27.795c-11.568,9.518-22.174,18.844-31.812,27.848c-9.643,8.99-17.608,17.693-23.915,25.793
		c-6.292,8.102-9.448,15.758-9.448,21.68c0,7.189,8.542,14.947,18.648,16.299c9.896,1.33,21.999,2.328,44.982,2.328h753.789
		c9.557,0,17.305-8.109,17.305-17.666C1043.539,1111.764,1037.727,1104.883,1029.977,1103.172z"/>
	<path fill="#010101" d="M859.354,862.287c5.652-2.21,12.205-2.24,20.434-2.629c8.225-0.38,17.484-0.632,27.771-0.632
		c7.963,0,14.65-0.15,20.048-0.413c2.881-0.133,5.446-0.378,7.742-0.702c0.038-0.002,0.073,0,0.111-0.004
		c17.357-1.544,16.828-14.358,16.828-14.358c-0.014-12.167-13.115-12.726-13.115-12.726l-115.68-0.389
		c0,0-9.653,0.787-12.955,10.792c-0.556,1.92-0.928,3.862-0.928,6.561c0,1.805,0.384,4.374,1.154,7.712
		c0.775,3.345,1.527,4.579,3.083,6.936c16.452,19.282,29.369,34.458,38.757,45.508c9.38,11.052,16.395,19.539,21.019,25.447
		c4.624,5.918,7.646,10.1,9.059,12.537c1.412,2.444,2.376,4.567,2.891,6.36c-3.857,9.257-10.239,16.84-19.282,27.379
		c-8.285,9.66-17.993,17.931-26.993,26.805c-8.999,8.863-16.968,17.801-23.902,26.797c-6.946,9-10.415,17.998-10.415,26.996
		c0,7.201,4.945,11.438,14.846,12.721c9.894,1.297,26.152,1.93,48.778,1.93l69.801-0.387c3.341,0,6.484-1.414,9.445-4.24
		c2.951-2.822,4.435-5.912,4.435-9.256c0-5.398-1.324-11.076-5.331-12.387c-3.609-1.182-22.431-0.736-22.431-0.736
		c-5.917,0-12.728,0-20.439,0c-7.713,0-15.686,0-23.912,0c-8.228,0-15.568-1.074-21.59-2.508
		c-14.658-3.475-5.792-13.584-5.792-13.584c0.21-0.176,1.618-1.857,1.821-2.053c4.049-3.867,7.236-7.158,12.837-13.254
		c5.912-6.422,11.956-13.215,18.123-20.152c6.172-6.941,11.891-13.614,17.161-19.914c5.266-6.301,9.192-11.146,11.761-14.481
		c3.086-3.606,3.86-8.117,2.321-13.515c-1.547-5.403-4.376-11.196-8.492-17.366c-4.11-6.166-9.124-12.468-15.038-18.897
		c-5.911-6.424-11.57-12.399-16.967-17.938c-5.4-5.516-10.028-10.464-13.886-14.843c-3.849-4.366-5.91-7.572-6.164-9.636
		c-0.261-1.026-0.242-2.361,0.383-4.121C857.292,863.841,858.019,862.84,859.354,862.287z"/>
	<path fill="#010101" d="M1347.154,966.17c0,34.965,0.773,70.182,2.322,105.658c1.001,3.494,3.298,5.494,5.607,7.176
		c2.312,1.666,5.44,1.693,8.27,1.693c0.77,0,1.796-0.26,3.083-0.77c1.288-0.521,2.635-1.219,4.05-2.117
		c1.412-0.906,2.635-2.059,3.667-3.473c1.021-1.41,1.539-2.895,1.539-4.439l0.774-224.817c0-4.365-1.806-8.097-5.397-11.18
		c-3.605-3.078-7.465-4.626-11.571-4.626c-2.065,0-4.435,0.77-7.129,2.314c-2.708,1.54-4.188,3.729-4.441,6.557
		c-1.286,21.849-1.735,43.385-1.348,64.596C1346.966,923.944,1347.154,945.098,1347.154,966.17z"/>
	<path fill="#010101" d="M1142.631,1075.535c11.045,0,22.012-1.328,31.67-4.881c10.162-3.75,14.328-7.443,21.661-13.867
		c49.722-45.23,6.176-107.566,6.176-107.566c-7.029-9.173-14.724-17.44-26.331-24.781c0.413-0.371,0.803-0.765,1.192-1.154
		c5.091-3.882,9.256-8.729,12.392-14.673c3.603-6.808,5.397-15.869,5.397-27.185c0-8.739-1.287-17.605-3.857-26.609
		c-2.57-8.991-6.814-16.446-12.721-22.366c-10.797-10.8-20.881-17.982-34.835-22.173c-11.235-3.373-11.146-3.315-22.775-4.819
		c-5.869-0.762-11.994-0.195-19.322,1.732c-7.33,1.931-13.952,4.693-19.858,8.294l-2.755,1.79c-1.804,1.283-2.416,1.439-4.341,4.93
		c-1.673,3.039-2.164,9.284-2.159,11.016c0.076,24.682-0.455,41.843-0.578,59.193c-0.132,17.351-0.197,32.202-0.197,44.539
		c0,12.088,0.065,22.238,0.197,30.462c0.123,8.24,0.252,15.688,0.384,22.368c0.125,6.689,0.321,76.764,0.578,83.063
		c0.166,4.23,0.401,45.139,0.693,73.609h0.008c0.005,0,0.009-1.146,0.013-0.775c0.068,6.449,0.142,12.871,0.219,17.293l0.223,9.299
		c0.449,4.354,1.324,10.105,1.933,12.719c0.138,0.594,0.176,0.857,0.407,2.061c0.633,2.213,1.27,3.768,1.902,5.037
		c0.773,1.543,1.668,2.133,2.7,2.387c1.025,0.254,1.933,0.232,2.702,0.232c1.54,0,3.017-0.016,4.431,0.113
		c1.413,0.133,2.7-0.041,3.859-0.42c1.154-0.391,2.112-1.119,2.887-2.148c0.774-1.023,1.416-2.279,1.933-4.854
		c0.014-0.066,0.305-1.15,0.253-1.15c0.753-4.422,1.668-9.232,2.071-13.402c0.195-2.027,0.251-9.986,0.251-9.986
		c0.073-6.631,0.143-10.643,0.209-17.045c0.005-0.367,0.01,0.641,0.015,0.641h0.008c0.273-28.471,0.496-65.826,0.663-70.918
		c0.043-1.131,0.061-4.564,0.085-7.967c11.425,7.859,38.962,7.986,38.962,7.986
		C1140.196,1075.623,1141.417,1075.535,1142.631,1075.535z M1128.204,1054.695c-3.401-1.533-27.276-18.205-27.276-34.16
		l-0.171-77.412l-0.407-99.87l0.231-8.392c2.627-1.6,8.857-2.122,13.195-2.19c0.343,0.009,0.705,0.011,1.018,0.02
		c4.363,0.165,5.022,0.458,9.65,0.973c4.628,0.512,9.09,1.794,13.47,3.206c4.366,1.418,6.997,3.364,10.731,5.805
		c3.721,2.442,6.774,5.466,9.093,9.061c7.456,11.57,10.297,22.048,8.499,31.432c-1.8,9.384-6.935,17.676-15.42,24.87
		c-2.146,1.69-4.807,3.003-7.869,4.04c-0.205,0.075-0.397,0.152-0.604,0.221c-2.429-0.439-5.355-0.685-8.769-0.749
		c-4.688,0.069-8.545,1.339-11.544,3.828c-3.088,2.576-4.629,6.56-4.629,11.956c0,8.297,4.983,12.899,14.945,13.318
		c2.07-0.213,11.741-2.241,22.203-4.431h2.058c4.359,4.379,8.341,8.354,11.891,12.391c3.719,4.235,6.938,8.675,9.642,13.553
		c2.695,4.891,4.875,10.289,6.553,16.329c1.668,6.042,2.759,13.272,3.272,21.752c0,10.805-1.412,19.848-4.239,27.172
		c-2.827,7.33-6.553,13.17-11.181,17.535c-4.628,4.379-9.833,7.459-15.617,9.252c-5.782,1.807-11.505,2.707-17.164,2.707
		c-0.305,0-0.607-0.041-0.911-0.051C1135.305,1056.75,1131.754,1056.018,1128.204,1054.695z"/>
	<path fill="#010101" d="M682.042,830.823l-47.03-0.861l-0.857-0.107c-15.171,0.132-27.768,0.19-37.79,0.19
		c-11.315,0-20.244,0.39-26.803,1.159c-6.552,0.774-11.505,2.062-14.848,3.854c-3.344,1.796-6.125,4.115-7.15,6.946
		c-1.03,2.832-2.144,6.296-2.144,10.409v212.472c0,0,1.194,13.684,15.08,13.684h1.544c4.109,0,7.294-1.027,9.062-2.217
		c1.895-1.275,3.209-5.053,3.854-11.609s0.965-17.078,0.965-31.223c0-14.395,0.127-35.98,0.389-62.26h90.082
		c2.565,0,5.986-1.39,8.435-4.618c2.439-3.205,2.748-6.495,2.748-8.548c0-2.823-0.599-4.752-3.161-7.967
		c-2.577-3.221-6.355-2.957-9.951-2.957H573.89c0-4.381,0-9.406,0-13.001c0-3.859,0.126-8.548,0.002-14.077
		c-0.135-5.526-0.002-12.149-0.002-19.859c0-7.717,0-17.223,0-28.542c0-4.369,1.597-7.449,2.752-9.256
		c1.159-1.791,5.522-2.892,12.08-3.276c6.555-0.383,17.029-0.443,30.91-0.191l7.373-0.219c0.563,0,1.209-0.005,1.786-0.005
		c8.224-0.381,11.311,0.246,21.599,0.246c7.961,0,14.666-0.128,20.063-0.393c2.882-0.137,5.459-0.372,7.754-0.691
		c0.041-0.004,0.077,0,0.119-0.004c1.805-0.162,3.379-0.47,4.814-0.851l0.391-0.011c0.047-0.032,0.094-0.077,0.146-0.114
		c11.87-3.393,11.48-13.381,11.48-13.381C695.142,831.379,682.042,830.823,682.042,830.823z"/>
	<path fill="#010101" d="M1501.014,1074.338c3.084,1.926,6.172,2.895,9.26,2.895c6.163,0,11.57-4.119,16.188-12.348
		c5.917-13.881,12.084-28.271,18.513-43.188c6.426-14.898,12.917-29.881,19.471-44.926c6.562-15.042,13.05-30.009,19.475-44.919
		c6.429-14.911,12.237-28.315,18.157-42.197c2.146-3.664,3.533-5.723,4.982-7.742c1.745-2.43,3.342-4.051,6.168-4.051
		c1.797,0,2.854,0.602,3.666,1.35c0.692,0.638,1.667,1.748,3.396,3.499c5.748,7.644,11.253,15.467,16.27,24.462
		c5.015,9.001,9.701,18.507,14.072,28.531c4.368,10.024,8.486,20.316,12.342,30.846c3.857,10.549,7.578,21.094,11.188,31.626
		c1.792,5.146,4.171,12.146,7.13,21.016c2.956,8.877,6.1,17.68,9.444,26.416c3.341,8.742,6.749,16.26,10.223,22.559
		c3.473,6.303,6.493,9.451,9.06,9.451c1.801,0,3.854-0.713,6.168-2.127c2.318-1.412,4.496-3.08,6.562-5.004
		c2.054-1.936,3.858-4.053,5.402-6.367c1.54-2.316,1.821-4.543,1.373-6.557c-0.188-0.828-0.788-1.127-1.708-3.084l-0.38-0.715
		c-2.04-3.73-3.443-8.281-6.782-16.252c-3.347-7.967-6.738-17.543-11.105-28.732c-4.371-11.182-8.893-23.457-14.029-36.824
		c-5.145-13.362-10.428-26.738-16.079-40.103c-5.662-13.371-11.317-26.284-17.099-38.757c-5.788-12.468-11.613-23.585-17.521-33.358
		c-5.917-9.765-11.618-17.43-17.145-23.213c-5.21-5.449-10.106-8.499-14.739-8.499c-0.004,0-1.24,0.053-1.24,0.053
		c-1.912,0.249-7.531,1.7-13.29,9.87l-0.024,0.015c-0.5,0.693-1.01,1.403-1.519,2.132c-4.063,5.817-8.375,12.996-12.943,21.673
		c-5.141,9.774-10.544,20.901-16.194,33.496c-5.664,12.601-11.316,25.617-16.963,39.118c-5.663,13.495-11.186,26.979-16.584,40.477
		c-5.402,13.499-10.479,26.024-15.231,37.594c-4.762,11.566-9.067,21.785-12.921,30.65c-2.443,5.627-4.957,10-6.921,13.682
		c-0.522,0.982-0.983,1.9-1.416,2.797c-0.719,1.885-1.021,3.699-1.146,5.027l-0.051,0.762
		C1496.492,1069.484,1497.929,1072.41,1501.014,1074.338z"/>
	<path fill="#010101" d="M1774.132,1103.021v-0.025c-0.972-0.062-1.763-0.014-10.912-0.014h-618.096
		c-0.521,0-1.02,0.006-1.505,0.016c-0.026,0-0.046-0.002-0.073-0.002c-9.076,0-16.432,7.359-16.432,16.438
		c0,9.076,7.355,18.305,16.432,18.305l5.157-0.043h608.36h17.849c9.015-0.914,16.272-7.586,16.272-16.84
		C1791.185,1111.258,1783.618,1103.453,1774.132,1103.021z"/>
</g>
</svg>
